<mxfile host="app.diagrams.net" modified="2024-02-10T17:25:15.083Z" agent="Mozilla/5.0 (Macintosh; Intel Mac OS X 10_15_7) AppleWebKit/537.36 (KHTML, like Gecko) Chrome/121.0.0.0 Safari/537.36" etag="hOgwn5M6lFVd1vyKmVw1" version="23.1.2" type="device">
  <diagram name="Page-1" id="TXc_XsfPThmCprKDYL79">
    <mxGraphModel dx="1004" dy="612" grid="1" gridSize="10" guides="1" tooltips="1" connect="1" arrows="1" fold="1" page="1" pageScale="1" pageWidth="850" pageHeight="1100" math="0" shadow="0">
      <root>
        <mxCell id="0" />
        <mxCell id="1" parent="0" />
        <mxCell id="Sncx12Q_0zI0Qj9HOBdY-22" value="" style="rounded=0;whiteSpace=wrap;html=1;gradientColor=none;strokeWidth=1;fillColor=none;dashed=1;" vertex="1" parent="1">
          <mxGeometry x="280" y="80" width="505" height="330" as="geometry" />
        </mxCell>
        <mxCell id="Sncx12Q_0zI0Qj9HOBdY-1" value="" style="sketch=0;outlineConnect=0;fontColor=#232F3E;gradientColor=none;fillColor=#232F3D;strokeColor=none;dashed=0;verticalLabelPosition=bottom;verticalAlign=top;align=center;html=1;fontSize=12;fontStyle=0;aspect=fixed;pointerEvents=1;shape=mxgraph.aws4.client;" vertex="1" parent="1">
          <mxGeometry x="30" y="182" width="78" height="76" as="geometry" />
        </mxCell>
        <mxCell id="Sncx12Q_0zI0Qj9HOBdY-3" value="" style="endArrow=classic;html=1;rounded=0;" edge="1" parent="1">
          <mxGeometry width="50" height="50" relative="1" as="geometry">
            <mxPoint x="123.83" y="214.8" as="sourcePoint" />
            <mxPoint x="306.16999999999996" y="214.8" as="targetPoint" />
          </mxGeometry>
        </mxCell>
        <mxCell id="Sncx12Q_0zI0Qj9HOBdY-5" value="" style="sketch=0;points=[[0,0,0],[0.25,0,0],[0.5,0,0],[0.75,0,0],[1,0,0],[0,1,0],[0.25,1,0],[0.5,1,0],[0.75,1,0],[1,1,0],[0,0.25,0],[0,0.5,0],[0,0.75,0],[1,0.25,0],[1,0.5,0],[1,0.75,0]];outlineConnect=0;fontColor=#232F3E;fillColor=#8C4FFF;strokeColor=#ffffff;dashed=0;verticalLabelPosition=bottom;verticalAlign=top;align=center;html=1;fontSize=12;fontStyle=0;aspect=fixed;shape=mxgraph.aws4.resourceIcon;resIcon=mxgraph.aws4.api_gateway;" vertex="1" parent="1">
          <mxGeometry x="316" y="179" width="78" height="78" as="geometry" />
        </mxCell>
        <mxCell id="Sncx12Q_0zI0Qj9HOBdY-7" value="" style="sketch=0;points=[[0,0,0],[0.25,0,0],[0.5,0,0],[0.75,0,0],[1,0,0],[0,1,0],[0.25,1,0],[0.5,1,0],[0.75,1,0],[1,1,0],[0,0.25,0],[0,0.5,0],[0,0.75,0],[1,0.25,0],[1,0.5,0],[1,0.75,0]];outlineConnect=0;fontColor=#232F3E;fillColor=#ED7100;strokeColor=#ffffff;dashed=0;verticalLabelPosition=bottom;verticalAlign=top;align=center;html=1;fontSize=12;fontStyle=0;aspect=fixed;shape=mxgraph.aws4.resourceIcon;resIcon=mxgraph.aws4.lambda;" vertex="1" parent="1">
          <mxGeometry x="460" y="179" width="78" height="78" as="geometry" />
        </mxCell>
        <mxCell id="Sncx12Q_0zI0Qj9HOBdY-8" value="" style="sketch=0;points=[[0,0,0],[0.25,0,0],[0.5,0,0],[0.75,0,0],[1,0,0],[0,1,0],[0.25,1,0],[0.5,1,0],[0.75,1,0],[1,1,0],[0,0.25,0],[0,0.5,0],[0,0.75,0],[1,0.25,0],[1,0.5,0],[1,0.75,0]];outlineConnect=0;fontColor=#232F3E;fillColor=#C925D1;strokeColor=#ffffff;dashed=0;verticalLabelPosition=bottom;verticalAlign=top;align=center;html=1;fontSize=12;fontStyle=0;aspect=fixed;shape=mxgraph.aws4.resourceIcon;resIcon=mxgraph.aws4.dynamodb;" vertex="1" parent="1">
          <mxGeometry x="682.34" y="178" width="78" height="78" as="geometry" />
        </mxCell>
        <mxCell id="Sncx12Q_0zI0Qj9HOBdY-12" value="" style="endArrow=classic;html=1;rounded=0;" edge="1" parent="1">
          <mxGeometry width="50" height="50" relative="1" as="geometry">
            <mxPoint x="550.0047616392529" y="218" as="sourcePoint" />
            <mxPoint x="672.34" y="218" as="targetPoint" />
          </mxGeometry>
        </mxCell>
        <mxCell id="Sncx12Q_0zI0Qj9HOBdY-13" value="" style="endArrow=classic;html=1;rounded=0;" edge="1" parent="1">
          <mxGeometry width="50" height="50" relative="1" as="geometry">
            <mxPoint x="672.34" y="228" as="sourcePoint" />
            <mxPoint x="550.34" y="228" as="targetPoint" />
          </mxGeometry>
        </mxCell>
        <mxCell id="Sncx12Q_0zI0Qj9HOBdY-14" value="API Gateway" style="text;html=1;align=center;verticalAlign=middle;resizable=0;points=[];autosize=1;strokeColor=none;fillColor=none;" vertex="1" parent="1">
          <mxGeometry x="310" y="259" width="90" height="30" as="geometry" />
        </mxCell>
        <mxCell id="Sncx12Q_0zI0Qj9HOBdY-15" value="AWS Lambda" style="text;html=1;align=center;verticalAlign=middle;resizable=0;points=[];autosize=1;strokeColor=none;fillColor=none;" vertex="1" parent="1">
          <mxGeometry x="449" y="260" width="100" height="30" as="geometry" />
        </mxCell>
        <mxCell id="Sncx12Q_0zI0Qj9HOBdY-16" value="DynamoDB&lt;br&gt;Database" style="text;html=1;align=center;verticalAlign=middle;resizable=0;points=[];autosize=1;strokeColor=none;fillColor=none;" vertex="1" parent="1">
          <mxGeometry x="681.34" y="258" width="80" height="40" as="geometry" />
        </mxCell>
        <mxCell id="Sncx12Q_0zI0Qj9HOBdY-17" value="Client" style="text;html=1;align=center;verticalAlign=middle;resizable=0;points=[];autosize=1;strokeColor=none;fillColor=none;" vertex="1" parent="1">
          <mxGeometry x="44" y="259" width="50" height="30" as="geometry" />
        </mxCell>
        <mxCell id="Sncx12Q_0zI0Qj9HOBdY-19" value="" style="endArrow=classic;html=1;rounded=0;" edge="1" parent="1">
          <mxGeometry width="50" height="50" relative="1" as="geometry">
            <mxPoint x="405" y="220" as="sourcePoint" />
            <mxPoint x="445" y="220" as="targetPoint" />
          </mxGeometry>
        </mxCell>
        <mxCell id="Sncx12Q_0zI0Qj9HOBdY-20" value="HTTP Request" style="text;html=1;align=center;verticalAlign=middle;resizable=0;points=[];autosize=1;strokeColor=none;fillColor=none;" vertex="1" parent="1">
          <mxGeometry x="165" y="190" width="100" height="30" as="geometry" />
        </mxCell>
        <mxCell id="Sncx12Q_0zI0Qj9HOBdY-21" value="" style="endArrow=classic;html=1;rounded=0;" edge="1" parent="1">
          <mxGeometry width="50" height="50" relative="1" as="geometry">
            <mxPoint x="123.83" y="224.8" as="sourcePoint" />
            <mxPoint x="306.16999999999996" y="224.8" as="targetPoint" />
          </mxGeometry>
        </mxCell>
        <mxCell id="Sncx12Q_0zI0Qj9HOBdY-24" value="/Get" style="text;html=1;align=center;verticalAlign=middle;resizable=0;points=[];autosize=1;strokeColor=none;fillColor=none;" vertex="1" parent="1">
          <mxGeometry x="400" y="190" width="50" height="30" as="geometry" />
        </mxCell>
        <mxCell id="Sncx12Q_0zI0Qj9HOBdY-25" value="Scan" style="text;html=1;align=center;verticalAlign=middle;resizable=0;points=[];autosize=1;strokeColor=none;fillColor=none;" vertex="1" parent="1">
          <mxGeometry x="590" y="190" width="50" height="30" as="geometry" />
        </mxCell>
        <mxCell id="Sncx12Q_0zI0Qj9HOBdY-27" value="Response" style="text;html=1;align=center;verticalAlign=middle;resizable=0;points=[];autosize=1;strokeColor=none;fillColor=none;" vertex="1" parent="1">
          <mxGeometry x="575" y="226" width="80" height="30" as="geometry" />
        </mxCell>
        <mxCell id="Sncx12Q_0zI0Qj9HOBdY-28" value="" style="sketch=0;points=[[0,0,0],[0.25,0,0],[0.5,0,0],[0.75,0,0],[1,0,0],[0,1,0],[0.25,1,0],[0.5,1,0],[0.75,1,0],[1,1,0],[0,0.25,0],[0,0.5,0],[0,0.75,0],[1,0.25,0],[1,0.5,0],[1,0.75,0]];outlineConnect=0;fontColor=#232F3E;fillColor=#7AA116;strokeColor=#ffffff;dashed=0;verticalLabelPosition=bottom;verticalAlign=top;align=center;html=1;fontSize=12;fontStyle=0;aspect=fixed;shape=mxgraph.aws4.resourceIcon;resIcon=mxgraph.aws4.s3;" vertex="1" parent="1">
          <mxGeometry x="322" y="298" width="78" height="78" as="geometry" />
        </mxCell>
        <mxCell id="Sncx12Q_0zI0Qj9HOBdY-31" value="Movie Cover Images&amp;nbsp;" style="text;html=1;align=center;verticalAlign=middle;resizable=0;points=[];autosize=1;strokeColor=none;fillColor=none;" vertex="1" parent="1">
          <mxGeometry x="291" y="376" width="140" height="30" as="geometry" />
        </mxCell>
        <mxCell id="Sncx12Q_0zI0Qj9HOBdY-33" value="" style="endArrow=classic;html=1;rounded=0;edgeStyle=orthogonalEdgeStyle;" edge="1" parent="1" source="Sncx12Q_0zI0Qj9HOBdY-1" target="Sncx12Q_0zI0Qj9HOBdY-8">
          <mxGeometry width="50" height="50" relative="1" as="geometry">
            <mxPoint x="83" y="160" as="sourcePoint" />
            <mxPoint x="133" y="110" as="targetPoint" />
            <Array as="points">
              <mxPoint x="60" y="110" />
              <mxPoint x="721" y="110" />
            </Array>
          </mxGeometry>
        </mxCell>
        <mxCell id="Sncx12Q_0zI0Qj9HOBdY-34" value="Boto3 Upload" style="text;html=1;align=center;verticalAlign=middle;resizable=0;points=[];autosize=1;strokeColor=none;fillColor=none;" vertex="1" parent="1">
          <mxGeometry x="90" y="88" width="100" height="30" as="geometry" />
        </mxCell>
      </root>
    </mxGraphModel>
  </diagram>
</mxfile>
